{
	"asset":{
		"generator":"Khronos glTF Blender I/O v4.4.56",
		"version":"2.0"
	},
	"scene":0,
	"scenes":[
		{
			"name":"Scene",
			"nodes":[
				0,
				1,
				2,
				3
			]
		}
	],
	"nodes":[
		{
			"mesh":0,
			"name":"Fuel_injection"
		},
		{
			"mesh":1,
			"name":"Combustion_ext_cut"
		},
		{
			"mesh":2,
			"name":"Combustion_int_cut"
		},
		{
			"mesh":3,
			"name":"Combustion_int2_cut"
		}
	],
	"materials":[
		{
			"doubleSided":true,
			"name":"Material.012",
			"pbrMetallicRoughness":{
				"baseColorFactor":[
					0.4341509938240051,
					0.4125431180000305,
					0.3371637463569641,
					1
				],
				"roughnessFactor":0.5
			}
		},
		{
			"doubleSided":true,
			"name":"Material.004",
			"pbrMetallicRoughness":{
				"baseColorFactor":[
					0.25029826164245605,
					0.2573566734790802,
					0.2573566734790802,
					1
				],
				"roughnessFactor":0.5
			}
		},
		{
			"doubleSided":true,
			"name":"Material.009",
			"pbrMetallicRoughness":{
				"baseColorFactor":[
					0.17144010961055756,
					0.15292631089687347,
					0.0630100667476654,
					1
				],
				"metallicFactor":0.800000011920929,
				"roughnessFactor":0.5
			}
		}
	],
	"meshes":[
		{
			"name":"Fuel_injection",
			"primitives":[
				{
					"attributes":{
						"POSITION":0,
						"NORMAL":1
					},
					"indices":2,
					"material":0
				}
			]
		},
		{
			"name":"Combustion_ext_cut.005",
			"primitives":[
				{
					"attributes":{
						"POSITION":3,
						"NORMAL":4
					},
					"indices":5,
					"material":1
				}
			]
		},
		{
			"name":"Combustion_int_cut.002",
			"primitives":[
				{
					"attributes":{
						"POSITION":6,
						"NORMAL":7
					},
					"indices":8,
					"material":2
				}
			]
		},
		{
			"name":"Combustion_int2_cut",
			"primitives":[
				{
					"attributes":{
						"POSITION":9,
						"NORMAL":10
					},
					"indices":11,
					"material":2
				}
			]
		}
	],
	"accessors":[
		{
			"bufferView":0,
			"componentType":5126,
			"count":974006,
			"max":[
				236,
				236,
				-85
			],
			"min":[
				-236,
				-236,
				-155
			],
			"type":"VEC3"
		},
		{
			"bufferView":1,
			"componentType":5126,
			"count":974006,
			"type":"VEC3"
		},
		{
			"bufferView":2,
			"componentType":5125,
			"count":1021608,
			"type":"SCALAR"
		},
		{
			"bufferView":3,
			"componentType":5126,
			"count":763,
			"max":[
				225,
				225,
				-84.5
			],
			"min":[
				-225,
				-225,
				-369.5
			],
			"type":"VEC3"
		},
		{
			"bufferView":4,
			"componentType":5126,
			"count":763,
			"type":"VEC3"
		},
		{
			"bufferView":5,
			"componentType":5123,
			"count":1488,
			"type":"SCALAR"
		},
		{
			"bufferView":6,
			"componentType":5126,
			"count":34086,
			"max":[
				192,
				192,
				-84.5
			],
			"min":[
				-192,
				-192,
				-369.5
			],
			"type":"VEC3"
		},
		{
			"bufferView":7,
			"componentType":5126,
			"count":34086,
			"type":"VEC3"
		},
		{
			"bufferView":8,
			"componentType":5123,
			"count":60564,
			"type":"SCALAR"
		},
		{
			"bufferView":9,
			"componentType":5126,
			"count":1523,
			"max":[
				90,
				90,
				-84.5
			],
			"min":[
				-90,
				-90,
				-369.5
			],
			"type":"VEC3"
		},
		{
			"bufferView":10,
			"componentType":5126,
			"count":1523,
			"type":"VEC3"
		},
		{
			"bufferView":11,
			"componentType":5123,
			"count":2976,
			"type":"SCALAR"
		}
	],
	"bufferViews":[
		{
			"buffer":0,
			"byteLength":11688072,
			"byteOffset":0,
			"target":34962
		},
		{
			"buffer":0,
			"byteLength":11688072,
			"byteOffset":11688072,
			"target":34962
		},
		{
			"buffer":0,
			"byteLength":4086432,
			"byteOffset":23376144,
			"target":34963
		},
		{
			"buffer":0,
			"byteLength":9156,
			"byteOffset":27462576,
			"target":34962
		},
		{
			"buffer":0,
			"byteLength":9156,
			"byteOffset":27471732,
			"target":34962
		},
		{
			"buffer":0,
			"byteLength":2976,
			"byteOffset":27480888,
			"target":34963
		},
		{
			"buffer":0,
			"byteLength":409032,
			"byteOffset":27483864,
			"target":34962
		},
		{
			"buffer":0,
			"byteLength":409032,
			"byteOffset":27892896,
			"target":34962
		},
		{
			"buffer":0,
			"byteLength":121128,
			"byteOffset":28301928,
			"target":34963
		},
		{
			"buffer":0,
			"byteLength":18276,
			"byteOffset":28423056,
			"target":34962
		},
		{
			"buffer":0,
			"byteLength":18276,
			"byteOffset":28441332,
			"target":34962
		},
		{
			"buffer":0,
			"byteLength":5952,
			"byteOffset":28459608,
			"target":34963
		}
	],
	"buffers":[
		{
			"byteLength":28465560,
			"uri":"combustion_section_ensamble_cut.bin"
		}
	]
}
